<?xml version="1.0" encoding="utf-8"?>
<!-- Generator: Adobe Illustrator 26.0.3, SVG Export Plug-In . SVG Version: 6.00 Build 0)  -->
<svg version="1.1" id="Layer_1" xmlns="http://www.w3.org/2000/svg" xmlns:xlink="http://www.w3.org/1999/xlink" x="0px" y="0px"
	 viewBox="0 0 1000 237.5" style="enable-background:new 0 0 1000 237.5;" xml:space="preserve">
<style type="text/css">
	.st0{fill:#FFFFFF;}
</style>
<g>
	<polygon class="st0" points="177,114.8 211.9,183.5 235.8,183.5 270.5,114.8 270.5,204.1 305.9,204.1 305.9,39.2 271,39.2 
		223.9,137.2 176.5,39.2 141.5,39.2 141.5,204.1 177,204.1 	"/>
	<path class="st0" d="M520.8,148.2h25.5l27.4,56h40.6l-32.1-61.8c17.6-6.4,33.1-22.1,33.1-47.6c0-30.3-21.9-55.5-58.9-55.5h-71.1
		v164.9h35.4V148.2z M520.8,70.8h33.4c15.6,0,25.7,9.9,25.7,23.9s-10.2,23.9-25.7,23.9h-33.4V70.8z"/>
	<polygon class="st0" points="665,166 688.5,138 725.9,204.1 766.7,204.1 711.9,111.3 767,39.2 723.9,39.2 665,118.1 665,39.2 
		629.6,39.2 629.6,204.1 665,204.1 	"/>
	<path class="st0" d="M411.1,39.2h-31.2l-60.1,164.9h36.7l7-20.4H428l6.8,20.4h36.6L411.1,39.2z M373.5,153.9L396.4,88l22.2,65.9
		H373.5z"/>
	<polygon class="st0" points="858.5,39.2 858.5,204.1 823,204.1 823,89 799.6,89 823.5,39.2 	"/>
</g>
</svg>
