<svg xmlns="http://www.w3.org/2000/svg" viewBox="0 0 75.13 75.13"><defs><style>.cls-1{fill:#35bdb7;}.cls-2{fill:#fff;}</style></defs><g id="Layer_2" data-name="Layer 2"><g id="Layer_1-2" data-name="Layer 1"><g id="Layer_2-2" data-name="Layer 2"><g id="Layer_1-2-2" data-name="Layer 1-2"><rect class="cls-1" width="75.13" height="75.13"/><polygon class="cls-2" points="10.5 57.91 14.91 66.6 17.94 66.6 22.32 57.91 22.32 69.2 26.8 69.2 26.8 48.36 22.39 48.36 16.43 60.74 10.44 48.36 6.03 48.36 6.03 69.2 10.5 69.2 10.5 57.91"/><polygon class="cls-2" points="34 64.38 36.96 60.84 41.69 69.2 46.85 69.2 39.92 57.46 46.88 48.36 41.44 48.36 34 58.33 34 48.36 29.52 48.36 29.52 69.2 34 69.2 34 64.38"/><polygon class="cls-2" points="55.4 48.36 55.4 69.2 50.92 69.2 50.92 54.65 46.13 54.65 50.95 48.36 55.4 48.36"/><rect class="cls-2" x="57.75" y="64.9" width="4.29" height="4.29"/></g></g></g></g></svg>