<svg xmlns="http://www.w3.org/2000/svg" width="839.365" height="730.541" viewBox="0 0 839.365 730.541">
  <g id="Group_18" data-name="Group 18" transform="translate(-120.817 -3928.356)">
    <path id="Path_2" data-name="Path 2" d="M213.033,1390.124l5.646-9.848-2.823-5.252,6.763-1.576-1.051-7.485,4.333-2.1,4.6,4.727,8.01-10.374v-9.192l9.454-4.465,23.636,24.292-3.808,7.748,6.828,18.252-1.707,10.242,5.384,4.6v2.626l-3.02,2.758,3.808,3.939-3.151,4.859,7.091,6.171,3.151-3.282,3.02,1.182v6.3l11.03,4.2v6.828l-4.6,5.515,3.677,7.879-.394,7.747,4.464,6.3,3.808-3.283-1.838-11.818,14.838-4.071,6.565-4.2.788-4.727,4.858-3.283,4.859,1.97,2.232,6.3-11.293,7.353,5.384,12.737,1.051,6.565,7.747,3.414,2.5,5.778H362.2l3.939-9.061-2.626-4.333,2.626-5.253h14.576l.657-6.959,6.7-9.585L394.9,1450l5.515-2.889-.788-4.071,5.515-2.364,14.313,3.151,4.2-8.273,4.727,1.313,1.838-3.677-3.939-5.121,9.98-24.03,4.727-.919,5.909,5.384,7.354,3.151-3.545,5.909,4.333,1.576,4.464-2.364,14.182,4.2v3.808l4.333.525,4.6-5.777,3.414-8.8,11.293-1.707,2.889-3.283,7.616.788,4.6,5.384-2.364,3.086,3.808,3.611,4.333-2.758v-5.252l5.121.394,4.99,6.04-2.626,4.99,5.384,3.152-5.252,5.121,1.97,2.757-1.05,4.071-4.6-.656-5.121,4.464-3.939.525-3.545-3.677-5.909,5.778,1.838,3.545-3.546,1.97-12.868-.788-5.121,5.384,2.889,5.384.131,6.172-2.626,2.626,8.273,6.04-1.707,3.677-9.454-3.151-12.474,13,1.05,4.2-5.121,5.909-.394,4.333-4.2,3.02-.131,5.909h11.555l3.02-3.283,12.606.525,2.626,4.6,6.434-2.233,5.909,3.283-.262,4.727,4.2,4.071-1.838,2.233-9.454.919-2.1,5.253h6.172l.657,3.151h6.565l.656,3.414-1.871,5.318-10.636.886-4.727,5.909-18.613.887-17.727-6.2-5.614,5.318-10.636-1.772-15.363,9.454-1.477,6.8-7.977,4.136-11.227-2.068-6.8,5.909L379.47,1566.7l-7.682.886-2.364,5.318-15.659,1.182-18.023,11.818v5.909l-6.2,2.954-8.864-4.727-6.5,3.25-10.636-7.977h-6.5l2.364-7.091-3.25-4.924H285.517l-3.545-5.909-9.454,3.939v-16.151H261.881l-6.7,1.97,3.151,9.454-2.758,4.727-6.7-10.242-1.182-8.273,7.879-11.424-7.879-11.424-1.969-9.061L237.457,1515l-6.3-18.908h-7.485l-.394-13.788,5.121-3.545,5.515,5.121,6.3-5.909,2.364-7.485v-24.424l-7.091-27.575Z" transform="translate(-16.338 3062.701)" fill="#a5a5a5"/>
    <path id="Path_3" data-name="Path 3" d="M213.033,1390.124l5.646-9.848-2.823-5.252,6.763-1.576-1.051-7.485,4.333-2.1,4.6,4.727,8.01-10.374v-9.192l9.454-4.465,23.636,24.292-3.808,7.748,6.828,18.252-1.707,10.242,5.384,4.6v2.626l-3.02,2.758,3.808,3.939-3.151,4.859,7.091,6.171,3.151-3.282,3.02,1.182v6.3l11.03,4.2v6.828l-4.6,5.515,3.677,7.879-.394,7.747,4.464,6.3,3.808-3.283-1.838-11.818,14.838-4.071,6.565-4.2.788-4.727,4.858-3.283,4.859,1.97,2.232,6.3-11.293,7.353,5.384,12.737,1.051,6.565,7.747,3.414,2.5,5.778H362.2l3.939-9.061-2.626-4.333,2.626-5.253h14.576l.657-6.959,6.7-9.585L394.9,1450l5.515-2.889-.788-4.071,5.515-2.364,14.313,3.151,4.2-8.273,4.727,1.313,1.838-3.677-3.939-5.121,9.98-24.03,4.727-.919,5.909,5.384,7.354,3.151-3.545,5.909,4.333,1.576,4.464-2.364,14.182,4.2v3.808l4.333.525,4.6-5.777,3.414-8.8,11.293-1.707,2.889-3.283,7.616.788,4.6,5.384-2.364,3.086,3.808,3.611,4.333-2.758v-5.252l5.121.394,4.99,6.04-2.626,4.99,5.384,3.152-5.252,5.121,1.97,2.757-1.05,4.071-4.6-.656-5.121,4.464-3.939.525-3.545-3.677-5.909,5.778,1.838,3.545-3.546,1.97-12.868-.788-5.121,5.384,2.889,5.384.131,6.172-2.626,2.626,8.273,6.04-1.707,3.677-9.454-3.151-12.474,13,1.05,4.2-5.121,5.909-.394,4.333-4.2,3.02-.131,5.909h11.555l3.02-3.283,12.606.525,2.626,4.6,6.434-2.233,5.909,3.283-.262,4.727,4.2,4.071-1.838,2.233-9.454.919-2.1,5.253h6.172l.657,3.151h6.565l.656,3.414-1.871,5.318-10.636.886-4.727,5.909-18.613.887-17.727-6.2-5.614,5.318-10.636-1.772-15.363,9.454-1.477,6.8-7.977,4.136-11.227-2.068-6.8,5.909L379.47,1566.7l-7.682.886-2.364,5.318-15.659,1.182-18.023,11.818v5.909l-6.2,2.954-8.864-4.727-6.5,3.25-10.636-7.977h-6.5l2.364-7.091-3.25-4.924H285.517l-3.545-5.909-9.454,3.939v-16.151H261.881l-6.7,1.97,3.151,9.454-2.758,4.727-6.7-10.242-1.182-8.273,7.879-11.424-7.879-11.424-1.969-9.061L237.457,1515l-6.3-18.908h-7.485l-.394-13.788,5.121-3.545,5.515,5.121,6.3-5.909,2.364-7.485v-24.424l-7.091-27.575Z" transform="translate(-16.338 3062.701)" fill="none" stroke="#000" stroke-linecap="round" stroke-linejoin="round" stroke-width="2"/>
    <path id="Path_4" data-name="Path 4" d="M972.757,1365.894l5.011-3.115,3.414,3.115,3.545-4.1h7.682v-11.03l3.151-8.863,11.03,1.182,10.045-9.257,11.227-1.773,7.091,2.758,4.924-5.515,2.758-10.636-2.561-17.924,5.121-.985,4.53,5.515,6.894-2.561.591-6.565,15.757-3.48,6.5,6.5,4.924-3.02,6.3,1.641a50.908,50.908,0,0,0,0,5.515c.2.788,6.5,2.364,6.5,2.364l8.207-3.349,3.283,3.283,6.3-3.02-1.051-5.909,13.131-2.626,5.777-8.535,7.354,1.97,9.848,14.576,13.919,4.727,6.04-1.707-.656-5.384,7.616-8.535-1.576-6.565,10.373-7.616,14.707-.525,15.495-7.091,5.384,6.041v6.04l-11.555,7.616-3.939-2.626-3.02,1.97-.263,8.4,5.121,6.959,9.98-.525,9.848,5.646,11.293-1.313,29.414,15.757,3.086,12.081-16.151,18.712-18.909,10.242-26.886,30.727-31.909,28.068-26,22.159-33.977,23.045-31.317,14.773-21.272-4.136-15.068,1.773-5.318,7.386,3.545,8.273-10.932,3.25-15.954-7.977-10.045,3.546-2.659,11.227-15.954-1.182-10.932-5.023-29.84-5.909,1.871-5.318-.656-3.414h-6.565l-.656-3.152h-6.172l2.1-5.252,9.454-.919,1.838-2.232-4.2-4.071.263-4.727-5.909-3.283-6.434,2.232-2.626-4.6-12.606-.525-3.021,3.283H906.861l.131-5.909,4.2-3.02.394-4.333,5.121-5.909-1.051-4.2,12.474-13,9.454,3.151,1.707-3.677-8.273-6.04,2.626-2.626-.131-6.172-2.889-5.384,5.121-5.384,12.868.788,3.546-1.97-1.838-3.545,5.909-5.778,3.545,3.677,3.939-.525,5.121-4.465,4.6.657,1.05-4.071-1.97-2.757,5.253-5.121-5.384-3.152,2.626-4.99Z" transform="translate(-463.039 3111.122)" fill="#ddd"/>
    <path id="Path_5" data-name="Path 5" d="M972.757,1365.894l5.011-3.115,3.414,3.115,3.545-4.1h7.682v-11.03l3.151-8.863,11.03,1.182,10.045-9.257,11.227-1.773,7.091,2.758,4.924-5.515,2.758-10.636-2.561-17.924,5.121-.985,4.53,5.515,6.894-2.561.591-6.565,15.757-3.48,6.5,6.5,4.924-3.02,6.3,1.641a50.908,50.908,0,0,0,0,5.515c.2.788,6.5,2.364,6.5,2.364l8.207-3.349,3.283,3.283,6.3-3.02-1.051-5.909,13.131-2.626,5.777-8.535,7.354,1.97,9.848,14.576,13.919,4.727,6.04-1.707-.656-5.384,7.616-8.535-1.576-6.565,10.373-7.616,14.707-.525,15.495-7.091,5.384,6.041v6.04l-11.555,7.616-3.939-2.626-3.02,1.97-.263,8.4,5.121,6.959,9.98-.525,9.848,5.646,11.293-1.313,29.414,15.757,3.086,12.081-16.151,18.712-18.909,10.242-26.886,30.727-31.909,28.068-26,22.159-33.977,23.045-31.317,14.773-21.272-4.136-15.068,1.773-5.318,7.386,3.545,8.273-10.932,3.25-15.954-7.977-10.045,3.546-2.659,11.227-15.954-1.182-10.932-5.023-29.84-5.909,1.871-5.318-.656-3.414h-6.565l-.656-3.152h-6.172l2.1-5.252,9.454-.919,1.838-2.232-4.2-4.071.263-4.727-5.909-3.283-6.434,2.232-2.626-4.6-12.606-.525-3.021,3.283H906.861l.131-5.909,4.2-3.02.394-4.333,5.121-5.909-1.051-4.2,12.474-13,9.454,3.151,1.707-3.677-8.273-6.04,2.626-2.626-.131-6.172-2.889-5.384,5.121-5.384,12.868.788,3.546-1.97-1.838-3.545,5.909-5.778,3.545,3.677,3.939-.525,5.121-4.465,4.6.657,1.05-4.071-1.97-2.757,5.253-5.121-5.384-3.152,2.626-4.99Z" transform="translate(-463.039 3111.122)" fill="none" stroke="#000" stroke-linecap="round" stroke-linejoin="round" stroke-width="2"/>
    <path id="Path_6" data-name="Path 6" d="M458.8,756.481l-20.879-16.939-10.636-20.288-7.682-.591v-5.121l-15.363-9.848-.591-5.515,29.085-52.918-4.99-3.669,7.091-11.957-4.2-5.515,5.647-4.727.525-7.222-7.616-12.343,11.555-11.293-3.808-4.07-8.8,1.313-3.02-4.2-6.565,1.839-.131,6.828,3.02,6.7-7.222,11.818-8.667-11.424,4.859-4.99-2.1-8.273-18.121,2.889.657-5.384-5.384-1.182,4.005-13.985-4.005-1.772-6.631,5.909-.788,4.136-5.318,2.364-15.757-5.515-11.818-6.893-11.03-9.848v-5.121l4.727-2.758-3.742-8.667,2.758-9.848-16.151-5.909-3.939-8.076-2.561-19.894-13.788,8.273-17.333,23.636L269.9,529.182l-3.545,11.424L251,539.819l-7.879,4.727L225,539.425l-5.909,3.939-6.7-3.151-.788-16.939,12.212-20.878L213.572,470.88l.394-9.454-8.667-7.485-8.273-17.333L173.785,424l6.7,209.966-21.272,6.2-4.136,12.409-7.386.591-1.477,11.522L140.3,668.24l-11.522-6.2H114.6l-12.7,5.022H87.415l-9.159-7.682-14.182,1.182L62.6,655.24,51.962,657.6l-.3-7.977-5.909-8.035,5.023-3.34-2.659-9.9-8.568,2.364v-8.273l-6.8-2.659-10.931,4.432-4.432,22.159-3.841-2.364L4,656.028l23.242,31.515L43,731.663l14.576,35.454L78.454,797.45,84.1,787.6l-2.823-5.253,6.762-1.576-1.05-7.485,4.333-2.1,4.6,4.727,8.01-10.373V756.35l9.454-4.464,23.636,24.292-3.808,7.747,6.828,18.252-1.707,10.242,5.384,4.6v2.626l-3.02,2.758,3.808,3.939-3.151,4.858,7.091,6.172,3.151-3.283,3.02,1.182v6.3l11.03,4.2V852.6l-4.6,5.515,3.677,7.879-.394,7.747,4.464,6.3,3.808-3.283-1.839-11.818,14.838-4.07,6.566-4.2.788-4.727,4.858-3.283,4.859,1.97,2.232,6.3-11.293,7.353L199,877.024l1.05,6.566L207.795,887l2.495,5.778h17.333l3.939-9.061-2.626-4.333,2.626-5.253h14.576l.656-6.959,6.7-9.586,6.828-.263,5.515-2.889-.788-4.071,5.515-2.363,14.313,3.151,4.2-8.273L293.8,844.2l1.839-3.676L291.7,835.4l9.979-24.03,4.727-.919,6.215,5.515,7.047,3.02-3.545,5.909,4.333,1.576,4.465-2.364,14.182,4.2v3.808l4.333.525,4.6-5.778,3.414-8.8,11.293-1.707,2.889-3.283,7.616.788,4.6,5.384-2.364,3.086,3.808,3.611,4.333-2.758v-5.253l5.121.394,2.736,3.312,5.011-3.115,3.414,3.115,3.545-4.1h7.681v-11.03l3.151-8.863,11.03,1.181,10.045-9.257,11.227-1.773,7.091,2.758,4.924-5.515,2.758-10.636Z" transform="translate(118.242 3655.375)" fill="#c7c7c7"/>
    <path id="Path_7" data-name="Path 7" d="M458.8,756.481l-20.879-16.939-10.636-20.288-7.682-.591v-5.121l-15.363-9.848-.591-5.515,29.085-52.918-4.99-3.669,7.091-11.957-4.2-5.515,5.647-4.727.525-7.222-7.616-12.343,11.555-11.293-3.808-4.07-8.8,1.313-3.02-4.2-6.565,1.839-.131,6.828,3.02,6.7-7.222,11.818-8.667-11.424,4.859-4.99-2.1-8.273-18.121,2.889.657-5.384-5.384-1.182,4.005-13.985-4.005-1.772-6.631,5.909-.788,4.136-5.318,2.364-15.757-5.515-11.818-6.893-11.03-9.848v-5.121l4.727-2.758-3.742-8.667,2.758-9.848-16.151-5.909-3.939-8.076-2.561-19.894-13.788,8.273-17.333,23.636L269.9,529.182l-3.545,11.424L251,539.819l-7.879,4.727L225,539.425l-5.909,3.939-6.7-3.151-.788-16.939,12.212-20.878L213.572,470.88l.394-9.454-8.667-7.485-8.273-17.333L173.785,424l6.7,209.966-21.272,6.2-4.136,12.409-7.386.591-1.477,11.522L140.3,668.24l-11.522-6.2H114.6l-12.7,5.022H87.415l-9.159-7.682-14.182,1.182L62.6,655.24,51.962,657.6l-.3-7.977-5.909-8.035,5.023-3.34-2.659-9.9-8.568,2.364v-8.273l-6.8-2.659-10.931,4.432-4.432,22.159-3.841-2.364L4,656.028l23.242,31.515L43,731.663l14.576,35.454L78.454,797.45,84.1,787.6l-2.823-5.253,6.762-1.576-1.05-7.485,4.333-2.1,4.6,4.727,8.01-10.373V756.35l9.454-4.464,23.636,24.292-3.808,7.747,6.828,18.252-1.707,10.242,5.384,4.6v2.626l-3.02,2.758,3.808,3.939-3.151,4.858,7.091,6.172,3.151-3.283,3.02,1.182v6.3l11.03,4.2V852.6l-4.6,5.515,3.677,7.879-.394,7.747,4.464,6.3,3.808-3.283-1.839-11.818,14.838-4.07,6.566-4.2.788-4.727,4.858-3.283,4.859,1.97,2.232,6.3-11.293,7.353L199,877.024l1.05,6.566L207.795,887l2.495,5.778h17.333l3.939-9.061-2.626-4.333,2.626-5.253h14.576l.656-6.959,6.7-9.586,6.828-.263,5.515-2.889-.788-4.071,5.515-2.363,14.313,3.151,4.2-8.273L293.8,844.2l1.839-3.676L291.7,835.4l9.979-24.03,4.727-.919,6.215,5.515,7.047,3.02-3.545,5.909,4.333,1.576,4.465-2.364,14.182,4.2v3.808l4.333.525,4.6-5.778,3.414-8.8,11.293-1.707,2.889-3.283,7.616.788,4.6,5.384-2.364,3.086,3.808,3.611,4.333-2.758v-5.253l5.121.394,2.736,3.312,5.011-3.115,3.414,3.115,3.545-4.1h7.681v-11.03l3.151-8.863,11.03,1.181,10.045-9.257,11.227-1.773,7.091,2.758,4.924-5.515,2.758-10.636Z" transform="translate(118.242 3655.375)" fill="none" stroke="#000" stroke-linecap="round" stroke-linejoin="round" stroke-width="2"/>
    <path id="Path_8" data-name="Path 8" d="M999.33,594.9l4.563-2.725,7.091-12.113,15.068-7.977,12.409-10.045,14.181,6.8,7.682-15.068h9.454l4.727-4.136-6.5-6.8,14.772-12.7,13.591-3.841,4.136,3.25,10.341.3,5.022-5.318,5.318,3.841,4.727-2.364,3.25-6.5-1.772-5.909,5.909-8.273-8.272-5.613-7.682,8.273-8.273,1.477.3-9.75,5.318-4.136v-5.318L1120,484.34l1.478-11.227,7.386-5.318,8.864,4.727,11.818-2.659-1.477-11.522,9.947-6.106-2.363-6.5,2.363-3.545,7.288,1.773,3.742-4.924-11.424-7.879-1.773-4.727H1159l4.136,3.152,2.56-3.152-3.742-5.515L1146,417.174l-13.985.985-3.349,7.485-5.909-1.97-7.091,4.53-12.409-15.757V403.19h-3.939l-2.364,3.545-9.848,4.333-5.121-2.561-7.091.591-3.546-3.939-.69-7.977-29.25,6.2-.788,22.454-8.864,22.257-14.772,11.03-16.742-2.955-15.462,8.076-14.871-7.287-4.727,2.166-9.454-9.454-12.409,2.561-26.2-21.075-20.879,1.576-12.606,12.212-5.909,32.3,2.561,19.894,3.939,8.076,16.151,5.909-2.758,9.848,3.742,8.667-4.727,2.758v5.121l11.03,9.848,11.818,6.894,15.757,5.515,5.318-2.364.788-4.136,6.631-5.909,4,1.773-4,13.985,5.384,1.182-.656,5.384,18.121-2.889,2.1,8.273-4.858,4.99,8.667,11.424,7.222-11.818-3.02-6.7.131-6.828,6.566-1.838,3.02,4.2,8.8-1.313,3.808,4.07L991.714,582.56Z" transform="translate(-444.287 3672.642)" fill="#f0f0f0"/>
    <path id="Path_9" data-name="Path 9" d="M999.33,594.9l4.563-2.725,7.091-12.113,15.068-7.977,12.409-10.045,14.181,6.8,7.682-15.068h9.454l4.727-4.136-6.5-6.8,14.772-12.7,13.591-3.841,4.136,3.25,10.341.3,5.022-5.318,5.318,3.841,4.727-2.364,3.25-6.5-1.772-5.909,5.909-8.273-8.272-5.613-7.682,8.273-8.273,1.477.3-9.75,5.318-4.136v-5.318L1120,484.34l1.478-11.227,7.386-5.318,8.864,4.727,11.818-2.659-1.477-11.522,9.947-6.106-2.363-6.5,2.363-3.545,7.288,1.773,3.742-4.924-11.424-7.879-1.773-4.727H1159l4.136,3.152,2.56-3.152-3.742-5.515L1146,417.174l-13.985.985-3.349,7.485-5.909-1.97-7.091,4.53-12.409-15.757V403.19h-3.939l-2.364,3.545-9.848,4.333-5.121-2.561-7.091.591-3.546-3.939-.69-7.977-29.25,6.2-.788,22.454-8.864,22.257-14.772,11.03-16.742-2.955-15.462,8.076-14.871-7.287-4.727,2.166-9.454-9.454-12.409,2.561-26.2-21.075-20.879,1.576-12.606,12.212-5.909,32.3,2.561,19.894,3.939,8.076,16.151,5.909-2.758,9.848,3.742,8.667-4.727,2.758v5.121l11.03,9.848,11.818,6.894,15.757,5.515,5.318-2.364.788-4.136,6.631-5.909,4,1.773-4,13.985,5.384,1.182-.656,5.384,18.121-2.889,2.1,8.273-4.858,4.99,8.667,11.424,7.222-11.818-3.02-6.7.131-6.828,6.566-1.838,3.02,4.2,8.8-1.313,3.808,4.07L991.714,582.56Z" transform="translate(-444.287 3672.642)" fill="none" stroke="#000" stroke-linecap="round" stroke-linejoin="round" stroke-width="2"/>
    <path id="Path_10" data-name="Path 10" d="M1289.022,737.211l19.2-1.871,12.015,11.227,20.682,5.909,4.136-2.758,10.636,5.909,6.3-3.348,4.53,3.348v6.7l20.484,9.258v6.106l10.242,7.288,4.727,4.136v3.939l-4.727,1.576-.2,11.227-5.318,3.939-.591,6.106,4.53,5.318-4.53,5.909h-7.091L1371.846,836l-.985,4.916-4.924,3.151-8.076-1.182-1.379,7.879-4.727,5.712-7.485-6.106-.3-5.318-5.318-3.012-11.818,1.239-2.955,5.614h-8.568l-7.682,7.583-13.591,3.644-7.386,9.454-13.3,23.341-15.659,6.5v5.318l5.909,5.909,1.182,9.159,10.636,11.522-1.477,10.374-5.778,8.535-13.131,2.626,1.05,5.909-6.3,3.02-3.283-3.283-8.207,3.348-6.5-2.364v-5.515l-6.3-1.642-4.924,3.02-6.5-6.5-15.757,3.479-.591,6.566-6.894,2.561-4.53-5.515-5.121.985L1160.3,939.988,1149.668,919.7l-7.682-.591v-5.121l-15.363-9.848-.591-5.515,29.085-52.918-4.99-3.668,7.091-11.958-4.2-5.515,5.646-4.727.525-7.222,4.563-2.725,7.09-12.113,15.068-7.977,12.409-10.045,14.181,6.8,7.682-15.068h9.454l4.727-4.136-6.5-6.8,14.772-12.7,13.591-3.841,4.136,3.25,10.341.3,5.023-5.318,5.318,3.841,4.727-2.364Z" transform="translate(-604.145 3454.929)" fill="#fff"/>
    <path id="Path_11" data-name="Path 11" d="M1289.022,737.211l19.2-1.871,12.015,11.227,20.682,5.909,4.136-2.758,10.636,5.909,6.3-3.348,4.53,3.348v6.7l20.484,9.258v6.106l10.242,7.288,4.727,4.136v3.939l-4.727,1.576-.2,11.227-5.318,3.939-.591,6.106,4.53,5.318-4.53,5.909h-7.091L1371.846,836l-.985,4.916-4.924,3.151-8.076-1.182-1.379,7.879-4.727,5.712-7.485-6.106-.3-5.318-5.318-3.012-11.818,1.239-2.955,5.614h-8.568l-7.682,7.583-13.591,3.644-7.386,9.454-13.3,23.341-15.659,6.5v5.318l5.909,5.909,1.182,9.159,10.636,11.522-1.477,10.374-5.778,8.535-13.131,2.626,1.05,5.909-6.3,3.02-3.283-3.283-8.207,3.348-6.5-2.364v-5.515l-6.3-1.642-4.924,3.02-6.5-6.5-15.757,3.479-.591,6.566-6.894,2.561-4.53-5.515-5.121.985L1160.3,939.988,1149.668,919.7l-7.682-.591v-5.121l-15.363-9.848-.591-5.515,29.085-52.918-4.99-3.668,7.091-11.958-4.2-5.515,5.646-4.727.525-7.222,4.563-2.725,7.09-12.113,15.068-7.977,12.409-10.045,14.181,6.8,7.682-15.068h9.454l4.727-4.136-6.5-6.8,14.772-12.7,13.591-3.841,4.136,3.25,10.341.3,5.023-5.318,5.318,3.841,4.727-2.364Z" transform="translate(-604.145 3454.929)" fill="none" stroke="#000" stroke-linecap="round" stroke-linejoin="round" stroke-width="2"/>
    <path id="Path_12" data-name="Path 12" d="M1745.17,881.752l8.863,8.667,15.364,11.03,5.909,12.606-3.151,7.878h-7.091v8.273l-4.826,2.364-5.023,8.273,2.5,3.545-7.222,6.434,5.384,6.04v6.04l-11.555,7.616-3.939-2.626-3.02,1.97-.262,8.4,5.121,6.959,9.98-.525,9.848,5.646,11.293-1.313,29.414,15.757,3.086,12.081,25.212-36.045,22.257-29.742v-9.06l15.757-24.03,22.454-20.485,15.363-5.121,18.909-21.666,9.848-19.7,3.545-24.424,14.477-31.909,2.659-13-35.158-2.364-6.8-4.727-6.2,5.023-.886,23.045-19.5,1.182-16.841-5.614-5.023,5.318-23.34-4.727-3.545,5.023-15.363-5.023-3.841,4.136h-22.75l-6.4,7.288,4.727,4.136v3.939l-4.727,1.576-.2,11.227-5.318,3.939-.591,6.106,4.53,5.318-4.53,5.909h-7.091l-12.212,8.872-.985,4.916-4.924,3.151-8.076-1.182-1.379,7.879Z" transform="translate(-997.56 3429.651)" fill="#e5e5e5"/>
    <path id="Path_13" data-name="Path 13" d="M1745.17,881.752l8.863,8.667,15.364,11.03,5.909,12.606-3.151,7.878h-7.091v8.273l-4.826,2.364-5.023,8.273,2.5,3.545-7.222,6.434,5.384,6.04v6.04l-11.555,7.616-3.939-2.626-3.02,1.97-.262,8.4,5.121,6.959,9.98-.525,9.848,5.646,11.293-1.313,29.414,15.757,3.086,12.081,25.212-36.045,22.257-29.742v-9.06l15.757-24.03,22.454-20.485,15.363-5.121,18.909-21.666,9.848-19.7,3.545-24.424,14.477-31.909,2.659-13-35.158-2.364-6.8-4.727-6.2,5.023-.886,23.045-19.5,1.182-16.841-5.614-5.023,5.318-23.34-4.727-3.545,5.023-15.363-5.023-3.841,4.136h-22.75l-6.4,7.288,4.727,4.136v3.939l-4.727,1.576-.2,11.227-5.318,3.939-.591,6.106,4.53,5.318-4.53,5.909h-7.091l-12.212,8.872-.985,4.916-4.924,3.151-8.076-1.182-1.379,7.879Z" transform="translate(-997.56 3429.651)" fill="none" stroke="#000" stroke-linecap="round" stroke-linejoin="round" stroke-width="2"/>
    <path id="Path_14" data-name="Path 14" d="M1587.208,488.7l5.909,1.576,10.045-3.841-1.182-7.386,12.113-4.727,7.091,5.614-6.8,7.681,2.954,5.614,3.841-5.023,12.7-1.772,5.613,3.545v4.727h-7.977l-2.659,13.591-4.727,1.477-5.318,17.136h-15.364l-7.682,3.25v7.091l10.636,11.227,5.318-2.774,3.841,4.842-6.8,7.977h-11.227l-7.977,12.113-11.03,7.879-12.015-11.227-19.2,1.871-1.773-5.909,5.909-8.273-8.273-5.614-7.682,8.273-8.273,1.477.3-9.75,5.318-4.136v-5.318l5.318-5.909,1.477-11.227,7.386-5.318,8.863,4.727,11.818-2.659-1.477-11.522,9.947-6.106-2.364-6.5,2.364-3.545,7.288,1.773Z" transform="translate(-862.446 3622.976)" fill="#9f9f9f"/>
    <path id="Path_15" data-name="Path 15" d="M1587.208,488.7l5.909,1.576,10.045-3.841-1.182-7.386,12.113-4.727,7.091,5.614-6.8,7.681,2.954,5.614,3.841-5.023,12.7-1.772,5.613,3.545v4.727h-7.977l-2.659,13.591-4.727,1.477-5.318,17.136h-15.364l-7.682,3.25v7.091l10.636,11.227,5.318-2.774,3.841,4.842-6.8,7.977h-11.227l-7.977,12.113-11.03,7.879-12.015-11.227-19.2,1.871-1.773-5.909,5.909-8.273-8.273-5.614-7.682,8.273-8.273,1.477.3-9.75,5.318-4.136v-5.318l5.318-5.909,1.477-11.227,7.386-5.318,8.863,4.727,11.818-2.659-1.477-11.522,9.947-6.106-2.364-6.5,2.364-3.545,7.288,1.773Z" transform="translate(-862.446 3622.976)" fill="none" stroke="#000" stroke-linecap="round" stroke-linejoin="round" stroke-width="2"/>
    <path id="Path_16" data-name="Path 16" d="M1694.726,375.981l-8.568,4.432-2.955-4.432L1706.84,362.1h13l4.136,2.954,4.432-2.954v-5.318l7.977-4.136,5.613,1.182v4.727l-3.841,3.25-2.068,8.273,5.909,7.091,11.03-1.477,10.833-4.432v-6.2l13-7.386-3.545-5.023,1.477-6.8h17.727l6.5,4.432,8.863-11.522,12.113,6.8,7.091,1.773,3.841,3.545V355h-7.977v4.579l10.341,4.875v5.318l-6.5-1.477-2.364,6.5,8.864,1.182,4.136-4.727,7.091,2.068,3.545-7.682-6.5-.591L1839.5,361.5l8.568-5.614,3.841-5.909-7.977-3.545,1.773-2.659-5.318-5.022,5.909-7.091.3-6.8h-8.864l-.3-5.022,11.227-4.136,13.59,3.545,9.75-5.023-.886,12.114,7.189,14.378-4.826,70.711-5.022,7.977,2.364,11.227h-10.045l-20.682-15.363-17.727,10.341.3,13.3-16.545,13,1.182,22.454h7.091l3.25,8.273-2.659,7.091,13.591,12.113-5.023,5.318-23.34-4.727-3.546,5.023-15.363-5.023-3.841,4.136H1754.7l-6.4,7.288-10.242-7.288v-6.106l-20.484-9.257v-6.7l-4.53-3.348-6.3,3.348L1696.1,478.6l-4.136,2.758-20.682-5.909,11.03-7.879,7.977-12.113h11.227l6.8-7.977-3.841-4.842-5.318,2.774-10.636-11.227v-7.091l7.681-3.25h15.363l5.318-17.136,4.727-1.477,2.659-13.591h7.977v-4.727l-5.613-3.545-12.7,1.773-3.841,5.023-2.954-5.614,6.8-7.681-7.091-5.614Z" transform="translate(-955.192 3726.047)" fill="#b5b5b5"/>
    <path id="Path_17" data-name="Path 17" d="M1694.726,375.981l-8.568,4.432-2.955-4.432L1706.84,362.1h13l4.136,2.954,4.432-2.954v-5.318l7.977-4.136,5.613,1.182v4.727l-3.841,3.25-2.068,8.273,5.909,7.091,11.03-1.477,10.833-4.432v-6.2l13-7.386-3.545-5.023,1.477-6.8h17.727l6.5,4.432,8.863-11.522,12.113,6.8,7.091,1.773,3.841,3.545V355h-7.977v4.579l10.341,4.875v5.318l-6.5-1.477-2.364,6.5,8.864,1.182,4.136-4.727,7.091,2.068,3.545-7.682-6.5-.591L1839.5,361.5l8.568-5.614,3.841-5.909-7.977-3.545,1.773-2.659-5.318-5.022,5.909-7.091.3-6.8h-8.864l-.3-5.022,11.227-4.136,13.59,3.545,9.75-5.023-.886,12.114,7.189,14.378-4.826,70.711-5.022,7.977,2.364,11.227h-10.045l-20.682-15.363-17.727,10.341.3,13.3-16.545,13,1.182,22.454h7.091l3.25,8.273-2.659,7.091,13.591,12.113-5.023,5.318-23.34-4.727-3.546,5.023-15.363-5.023-3.841,4.136H1754.7l-6.4,7.288-10.242-7.288v-6.106l-20.484-9.257v-6.7l-4.53-3.348-6.3,3.348L1696.1,478.6l-4.136,2.758-20.682-5.909,11.03-7.879,7.977-12.113h11.227l6.8-7.977-3.841-4.842-5.318,2.774-10.636-11.227v-7.091l7.681-3.25h15.363l5.318-17.136,4.727-1.477,2.659-13.591h7.977v-4.727l-5.613-3.545-12.7,1.773-3.841,5.023-2.954-5.614,6.8-7.681-7.091-5.614Z" transform="translate(-955.192 3726.047)" fill="none" stroke="#000" stroke-linecap="round" stroke-linejoin="round" stroke-width="2"/>
    <path id="Path_18" data-name="Path 18" d="M1709.824,114.5l-9.75,5.023-13.59-3.545-11.227,4.136.3,5.023h8.864l-.3,6.8-5.909,7.091,5.318,5.023-1.773,2.659,7.977,3.545-3.841,5.909-8.568,5.613,2.068,3.545,6.5.591-3.545,7.682-7.091-2.068-4.136,4.727-8.864-1.182,2.364-6.5,6.5,1.477v-5.318l-10.341-4.875v-4.58h7.977v-4.136l-3.841-3.545-7.091-1.773-12.114-6.8-8.864,11.522-6.5-4.432h-17.727l-1.477,6.8,3.545,5.023-13,7.386v6.2l-10.833,4.432-11.03,1.477-5.909-7.091,2.068-8.273,3.841-3.25v-4.727l-5.613-1.182-7.977,4.137v5.318l-4.432,2.954-4.136-2.954h-13l-23.636,13.886,2.955,4.432,8.568-4.432,1.182,7.386-10.045,3.841-5.909-1.576-11.424-7.879-1.773-4.727h3.151l4.136,3.151,2.561-3.151-3.742-5.515-15.954-3.742-13.985.985-3.349,7.485-5.909-1.97-7.091,4.53-12.409-15.757v-9.257h-3.939l-2.364,3.545-9.848,4.333-5.121-2.561-7.09.591-3.545-3.939-.69-7.977,10.341-13.886,15.363-8.864,6.5-30.431L1471.4,73.727l12.409-.591.3-9.159,8.568-5.023,4.432,2.068,28.068-33.386,31.318-4.432,7.091-15.068,39-4.136L1633.3,19.069l37.522-3.545L1685.6,23.5l10.636,46.386-2.955,15.363,7.977,10.636L1702.437,108Z" transform="translate(-793.02 3925.781)" fill="#d8d8d8"/>
    <path id="Path_19" data-name="Path 19" d="M1709.824,114.5l-9.75,5.023-13.59-3.545-11.227,4.136.3,5.023h8.864l-.3,6.8-5.909,7.091,5.318,5.023-1.773,2.659,7.977,3.545-3.841,5.909-8.568,5.613,2.068,3.545,6.5.591-3.545,7.682-7.091-2.068-4.136,4.727-8.864-1.182,2.364-6.5,6.5,1.477v-5.318l-10.341-4.875v-4.58h7.977v-4.136l-3.841-3.545-7.091-1.773-12.114-6.8-8.864,11.522-6.5-4.432h-17.727l-1.477,6.8,3.545,5.023-13,7.386v6.2l-10.833,4.432-11.03,1.477-5.909-7.091,2.068-8.273,3.841-3.25v-4.727l-5.613-1.182-7.977,4.137v5.318l-4.432,2.954-4.136-2.954h-13l-23.636,13.886,2.955,4.432,8.568-4.432,1.182,7.386-10.045,3.841-5.909-1.576-11.424-7.879-1.773-4.727h3.151l4.136,3.151,2.561-3.151-3.742-5.515-15.954-3.742-13.985.985-3.349,7.485-5.909-1.97-7.091,4.53-12.409-15.757v-9.257h-3.939l-2.364,3.545-9.848,4.333-5.121-2.561-7.09.591-3.545-3.939-.69-7.977,10.341-13.886,15.363-8.864,6.5-30.431L1471.4,73.727l12.409-.591.3-9.159,8.568-5.023,4.432,2.068,28.068-33.386,31.318-4.432,7.091-15.068,39-4.136L1633.3,19.069l37.522-3.545L1685.6,23.5l10.636,46.386-2.955,15.363,7.977,10.636L1702.437,108Z" transform="translate(-793.02 3925.781)" fill="none" stroke="#000" stroke-linecap="round" stroke-linejoin="round" stroke-width="2"/>
    <rect id="Rectangle_33" data-name="Rectangle 33" width="839.365" height="730.541" transform="translate(120.817 3928.356)" fill="none"/>
  </g>
</svg>
